<?xml version="1.0" encoding="utf-8"?>
<!-- Generator: Adobe Illustrator 23.0.1, SVG Export Plug-In . SVG Version: 6.00 Build 0)  -->
<svg version="1.1" id="Capa_1" xmlns="http://www.w3.org/2000/svg" xmlns:xlink="http://www.w3.org/1999/xlink" x="0px" y="0px"
	 viewBox="0 0 16 16" style="enable-background:new 0 0 16 16;" xml:space="preserve">
<style type="text/css">
	.st0{fill:none;}
	.st1{fill:#AFAFAF;}
</style>
<title>icons</title>
<g>
	<path class="st0" d="M8,2.8C5.1,2.8,2.8,5.1,2.8,8c0,2.9,2.3,5.2,5.2,5.2c2.9,0,5.2-2.3,5.2-5.2C13.2,5.1,10.9,2.8,8,2.8z
		 M11.6,6.6l-4.5,4.4c-0.1,0.1-0.3,0.1-0.4,0L4.4,8.7c-0.1-0.1-0.1-0.3,0-0.4L5,7.7c0.1-0.1,0.3-0.1,0.4,0l1.6,1.6l3.7-3.6
		c0.1-0.1,0.3-0.1,0.4,0l0.6,0.6C11.8,6.3,11.8,6.5,11.6,6.6z"/>
	<path class="st1" d="M8,1.6C4.4,1.6,1.6,4.4,1.6,8s2.9,6.4,6.4,6.4s6.4-2.9,6.4-6.4S11.6,1.6,8,1.6z M8,13.2
		c-2.9,0-5.2-2.3-5.2-5.2c0-2.9,2.3-5.2,5.2-5.2c2.9,0,5.2,2.3,5.2,5.2C13.2,10.9,10.9,13.2,8,13.2z"/>
</g>
</svg>
