<?xml version="1.0" encoding="utf-8"?>
<!-- Generator: Adobe Illustrator 23.0.1, SVG Export Plug-In . SVG Version: 6.00 Build 0)  -->
<svg version="1.1" id="Capa_1" xmlns="http://www.w3.org/2000/svg" xmlns:xlink="http://www.w3.org/1999/xlink" x="0px" y="0px"
	 viewBox="0 0 24 24" style="enable-background:new 0 0 24 24;" xml:space="preserve">
<style type="text/css">
	.st0{fill:#ACACAC;}
</style>
<path class="st0" d="M19.9,11.8l1.8-1.8c0.5-0.5,0.3-1.4-0.4-1.6l-2.5-0.6l0.7-2.5c0.2-0.7-0.5-1.4-1.2-1.2l-2.5,0.7l-0.6-2.5
	c-0.2-0.7-1.1-1-1.6-0.4l-1.8,1.8L10.1,2C9.6,1.5,8.7,1.7,8.5,2.4L7.9,4.9L5.4,4.2C4.7,4,4.1,4.7,4.3,5.4L5,7.8L2.5,8.5
	c-0.7,0.2-1,1.1-0.4,1.6l1.8,1.8l-1.8,1.8c-0.5,0.5-0.3,1.4,0.4,1.6L5,15.8l-0.7,2.5c-0.2,0.7,0.5,1.4,1.2,1.2l2.5-0.7l0.6,2.5
	c0.2,0.7,1.1,1,1.6,0.4l1.8-1.8l1.8,1.8c0.5,0.5,1.4,0.3,1.6-0.4l0.6-2.5l2.5,0.7c0.7,0.2,1.4-0.5,1.2-1.2l-0.7-2.5l2.5-0.6
	c0.7-0.2,1-1.1,0.4-1.6L19.9,11.8L19.9,11.8z"/>
</svg>
