<?xml version="1.0" encoding="utf-8"?>
<!-- Generator: Adobe Illustrator 23.0.1, SVG Export Plug-In . SVG Version: 6.00 Build 0)  -->
<svg version="1.1" id="Capa_1" xmlns="http://www.w3.org/2000/svg" xmlns:xlink="http://www.w3.org/1999/xlink" x="0px" y="0px"
	 viewBox="0 0 24 24" style="enable-background:new 0 0 24 24;" xml:space="preserve">
<style type="text/css">
	.st0{fill:#ACACAC;}
</style>
<path class="st0" d="M15.5,12.8c-0.6,0-1.1-0.3-1.4-0.8L12,8.5l-2.1,3.5c-0.3,0.5-0.8,0.8-1.4,0.8c-0.1,0-0.3,0-0.4-0.1l-4.5-1.3
	v5.9c0,0.5,0.3,0.9,0.8,1l7.1,1.8c0.3,0.1,0.7,0.1,1,0l7.2-1.8c0.5-0.1,0.8-0.5,0.8-1v-5.9l-4.5,1.3C15.8,12.8,15.6,12.8,15.5,12.8z
	 M22.5,9.1l-1.7-3.4c-0.1-0.2-0.3-0.3-0.6-0.3L12,6.5l3,5c0.1,0.2,0.4,0.3,0.6,0.2l6.5-1.9C22.5,9.8,22.7,9.4,22.5,9.1L22.5,9.1z
	 M3.2,5.7L1.5,9.1c-0.2,0.3,0,0.7,0.3,0.8l6.5,1.9c0.2,0.1,0.5,0,0.6-0.2l3-5L3.7,5.4C3.5,5.4,3.3,5.5,3.2,5.7z"/>
</svg>
