<?xml version="1.0" encoding="utf-8"?>
<!-- Generator: Adobe Illustrator 23.0.1, SVG Export Plug-In . SVG Version: 6.00 Build 0)  -->
<svg version="1.1" id="Capa_1" xmlns="http://www.w3.org/2000/svg" xmlns:xlink="http://www.w3.org/1999/xlink" x="0px" y="0px"
	 viewBox="0 0 24 24" style="enable-background:new 0 0 24 24;" xml:space="preserve">
<style type="text/css">
	.st0{fill:#ACACAC;}
</style>
<path class="st0" d="M22.8,14.3h-3.2v3.8l-1.3-0.8l-1.3,0.8v-3.8h-3.2c-0.3,0-0.6,0.3-0.6,0.6v7.6c0,0.3,0.3,0.6,0.6,0.6h8.9
	c0.3,0,0.6-0.3,0.6-0.6v-7.6C23.4,14.6,23.1,14.3,22.8,14.3z M7.6,11.8h8.9c0.3,0,0.6-0.3,0.6-0.6V3.5c0-0.3-0.3-0.6-0.6-0.6h-3.2
	v3.8L12,5.8l-1.3,0.8V2.9H7.6c-0.3,0-0.6,0.3-0.6,0.6v7.6C6.9,11.5,7.2,11.8,7.6,11.8z M10.1,14.3H6.9v3.8l-1.3-0.8l-1.3,0.8v-3.8
	H1.2c-0.3,0-0.6,0.3-0.6,0.6v7.6c0,0.3,0.3,0.6,0.6,0.6h8.9c0.3,0,0.6-0.3,0.6-0.6v-7.6C10.7,14.6,10.4,14.3,10.1,14.3z"/>
</svg>
