<?xml version="1.0" encoding="utf-8"?>
<!-- Generator: Adobe Illustrator 23.0.1, SVG Export Plug-In . SVG Version: 6.00 Build 0)  -->
<svg version="1.1" id="Capa_1" xmlns="http://www.w3.org/2000/svg" xmlns:xlink="http://www.w3.org/1999/xlink" x="0px" y="0px"
	 viewBox="0 0 24 24" style="enable-background:new 0 0 24 24;" xml:space="preserve">
<style type="text/css">
	.st0{fill:#ACACAC;}
</style>
<path class="st0" d="M18.6,18.7h1.1c0.3,0,0.6-0.3,0.6-0.6V6.5c0-0.3-0.3-0.6-0.6-0.6h-1.1c-0.3,0-0.6,0.3-0.6,0.6v11.6
	C18,18.4,18.3,18.7,18.6,18.7z M9.6,18.7h1.1c0.3,0,0.6-0.3,0.6-0.6v-10c0-0.3-0.3-0.6-0.6-0.6H9.6C9.3,7.4,9,7.8,9,8.1v10
	C9,18.4,9.3,18.7,9.6,18.7z M14.1,18.7h1.1c0.3,0,0.6-0.3,0.6-0.6v-6.8c0-0.3-0.3-0.6-0.6-0.6h-1.1c-0.3,0-0.6,0.3-0.6,0.6v6.8
	C13.5,18.4,13.8,18.7,14.1,18.7z M23.2,21.1h-21V5c0-0.4-0.3-0.8-0.8-0.8H0.8C0.3,4.2,0,4.6,0,5v16.9c0,0.9,0.7,1.6,1.5,1.6h21.8
	c0.4,0,0.8-0.4,0.8-0.8v-0.8C24,21.5,23.7,21.1,23.2,21.1z M5.1,18.7h1c0.3,0,0.6-0.3,0.6-0.6v-3.5c0-0.3-0.3-0.6-0.6-0.6H5.1
	c-0.3,0-0.6,0.3-0.6,0.6v3.5C4.5,18.4,4.8,18.7,5.1,18.7z"/>
</svg>
