<?xml version="1.0" encoding="utf-8"?>
<!-- Generator: Adobe Illustrator 23.0.1, SVG Export Plug-In . SVG Version: 6.00 Build 0)  -->
<svg version="1.1" id="Capa_1" xmlns="http://www.w3.org/2000/svg" xmlns:xlink="http://www.w3.org/1999/xlink" x="0px" y="0px"
	 viewBox="0 0 24 24" style="enable-background:new 0 0 24 24;" xml:space="preserve">
<style type="text/css">
	.st0{fill:#ACACAC;}
</style>
<path class="st0" d="M16.3,9.9c0-3-3.1-5.3-7-5.3s-7,2.4-7,5.3c0,1.1,0.5,2.2,1.3,3.1c-0.4,1-1.2,1.8-1.2,1.8
	c-0.1,0.1-0.1,0.2-0.1,0.3c0,0.1,0.1,0.2,0.2,0.2c1.2,0,2.2-0.4,3-0.8c1.1,0.5,2.3,0.8,3.7,0.8C13.2,15.2,16.3,12.8,16.3,9.9z
	 M20.4,17.2c0.8-0.9,1.3-1.9,1.3-3.1c0-2.2-1.8-4.2-4.3-4.9c0,0.2,0,0.4,0,0.7c0,3.5-3.6,6.4-8,6.4c-0.4,0-0.7,0-1.1-0.1
	c1.1,1.9,3.5,3.3,6.4,3.3c1.4,0,2.6-0.3,3.7-0.8c0.7,0.4,1.7,0.8,3,0.8c0.1,0,0.2-0.1,0.2-0.2c0-0.1,0-0.2-0.1-0.3
	C21.5,19,20.8,18.2,20.4,17.2z"/>
</svg>
