<?xml version="1.0" encoding="utf-8"?>
<!-- Generator: Adobe Illustrator 23.0.1, SVG Export Plug-In . SVG Version: 6.00 Build 0)  -->
<svg version="1.1" id="Capa_1" xmlns="http://www.w3.org/2000/svg" xmlns:xlink="http://www.w3.org/1999/xlink" x="0px" y="0px"
	 viewBox="0 0 24 24" style="enable-background:new 0 0 24 24;" xml:space="preserve">
<style type="text/css">
	.st0{fill:#ACACAC;}
</style>
<path class="st0" d="M21.9,3.2c-2.1,0.1-6.4,0.6-9,2.2c-0.2,0.1-0.3,0.3-0.3,0.5v14.2c0,0.5,0.5,0.7,0.9,0.5
	c2.7-1.4,6.6-1.7,8.5-1.8c0.7,0,1.2-0.6,1.2-1.2V4.4C23.3,3.8,22.7,3.2,21.9,3.2z M11.1,5.4c-2.6-1.6-6.9-2.1-9-2.2
	c-0.7,0-1.3,0.5-1.3,1.2v13.2c0,0.6,0.5,1.2,1.2,1.2c1.9,0.1,5.8,0.5,8.6,1.8c0.4,0.2,0.9-0.1,0.9-0.5V5.9
	C11.4,5.7,11.3,5.5,11.1,5.4z"/>
</svg>
