<?xml version="1.0" encoding="utf-8"?>
<!-- Generator: Adobe Illustrator 23.0.1, SVG Export Plug-In . SVG Version: 6.00 Build 0)  -->
<svg version="1.1"
	 id="svg4564" inkscape:version="0.48.2 r9819" sodipodi:docname="icon_diari1.svg" xmlns:cc="http://creativecommons.org/ns#" xmlns:dc="http://purl.org/dc/elements/1.1/" xmlns:inkscape="http://www.inkscape.org/namespaces/inkscape" xmlns:rdf="http://www.w3.org/1999/02/22-rdf-syntax-ns#" xmlns:sodipodi="http://sodipodi.sourceforge.net/DTD/sodipodi-0.dtd" xmlns:svg="http://www.w3.org/2000/svg"
	 xmlns="http://www.w3.org/2000/svg" xmlns:xlink="http://www.w3.org/1999/xlink" x="0px" y="0px" viewBox="0 0 24 24"
	 style="enable-background:new 0 0 24 24;" xml:space="preserve">
<style type="text/css">
	.st0{fill:#ACACAC;}
	.st1{fill:#FFFFFF;}
</style>
<sodipodi:namedview  bordercolor="#666666" borderopacity="1" gridtolerance="10" guidetolerance="10" id="namedview4642" inkscape:current-layer="svg4564" inkscape:cx="-89.860884" inkscape:cy="-16.218595" inkscape:pageopacity="0" inkscape:pageshadow="2" inkscape:window-height="977" inkscape:window-maximized="1" inkscape:window-width="1280" inkscape:window-x="-4" inkscape:window-y="-4" inkscape:zoom="2.4583333" objecttolerance="10" pagecolor="#ffffff" showgrid="false">
	</sodipodi:namedview>
<path class="st0" d="M3,0h18c1.7,0,3,1.3,3,3v18c0,1.7-1.3,3-3,3H3c-1.7,0-3-1.3-3-3V3C0,1.3,1.3,0,3,0z"/>
<path class="st1" d="M22.1,8c-0.7-0.6-1.5-0.8-2.4-0.8H16v2h-4.3l-0.4,1.5c0.3-0.1,0.7-0.3,1-0.4c0.3-0.1,0.6-0.1,0.9-0.1
	c0.9,0,1.7,0.3,2.3,0.9c0.6,0.6,0.9,1.4,0.9,2.2c0,0.6-0.2,1.3-0.5,1.8c-0.3,0.6-0.8,1-1.3,1.3c-0.2,0.1-0.4,0.2-0.7,0.3h3.7v-3.5
	h1.6c1,0.1,1.9-0.2,2.6-0.8c0.6-0.6,0.9-1.4,0.9-2.3C22.9,9.4,22.7,8.6,22.1,8z M19.7,11c-0.4,0.2-0.8,0.3-1.2,0.3h-0.8V9.2h0.9
	c0.4,0,0.8,0.1,1.1,0.3C19.9,9.7,20,10,20,10.3C20,10.6,19.9,10.8,19.7,11z M13.6,13.4c0,0.7-0.6,1.3-1.3,1.3c-0.5,0-1-0.3-1.2-0.7
	l-2.6,0.4c0.1,0.4,0.3,0.8,0.5,1.1c0.2,0.3,0.5,0.6,0.8,0.8c0.3,0.2,0.7,0.4,1.1,0.5H7.3v-3.5H4v3.5H1.1V7.2H4v4.1h3.3V7.2h2.4
	l-1.2,5.2l2.6,0.4c0.3-0.7,1.1-0.9,1.8-0.6C13.3,12.4,13.6,12.9,13.6,13.4L13.6,13.4z"/>
</svg>
