<?xml version="1.0" encoding="utf-8"?>
<!-- Generator: Adobe Illustrator 23.0.1, SVG Export Plug-In . SVG Version: 6.00 Build 0)  -->
<svg version="1.1" id="Capa_1" xmlns="http://www.w3.org/2000/svg" xmlns:xlink="http://www.w3.org/1999/xlink" x="0px" y="0px"
	 viewBox="0 0 24 24" style="enable-background:new 0 0 24 24;" xml:space="preserve">
<style type="text/css">
	.st0{fill:#ACACAC;}
</style>
<path class="st0" d="M22,4.1v2c0,1.7-4.5,3.1-10,3.1S2,7.8,2,6.1v-2C2,2.4,6.5,1,12,1S22,2.4,22,4.1z M22,8.6V13
	c0,1.7-4.5,3.1-10,3.1S2,14.7,2,13V8.6c2.1,1.4,6.1,2.1,10,2.1S19.9,10,22,8.6z M22,15.4v4.4c0,1.7-4.5,3.1-10,3.1S2,21.6,2,19.9
	v-4.4c2.1,1.4,6.1,2.1,10,2.1S19.9,16.9,22,15.4z"/>
</svg>
