<?xml version="1.0" encoding="utf-8"?>
<!-- Generator: Adobe Illustrator 23.0.1, SVG Export Plug-In . SVG Version: 6.00 Build 0)  -->
<svg version="1.1" id="Capa_1" xmlns="http://www.w3.org/2000/svg" xmlns:xlink="http://www.w3.org/1999/xlink" x="0px" y="0px"
	 viewBox="0 0 24 24" style="enable-background:new 0 0 24 24;" xml:space="preserve">
<style type="text/css">
	.st0{fill:#ACACAC;}
</style>
<path class="st0" d="M15.1,8.9c2.7,2.7,2.6,6.9,0,9.5c0,0,0,0,0,0l-3,3c-2.6,2.6-6.9,2.6-9.6,0c-2.6-2.6-2.6-6.9,0-9.6l1.7-1.7
	c0.4-0.4,1.2-0.1,1.2,0.5c0,0.8,0.2,1.6,0.4,2.3c0.1,0.3,0,0.5-0.2,0.7l-0.6,0.6c-1.2,1.2-1.3,3.3-0.1,4.5c1.2,1.3,3.3,1.3,4.6,0
	l3-3c1.3-1.3,1.2-3.3,0-4.5c-0.2-0.2-0.3-0.3-0.5-0.4c-0.2-0.1-0.3-0.3-0.3-0.6c0-0.5,0.1-1,0.5-1.3l0.9-0.9
	c0.2-0.2,0.6-0.3,0.9-0.1C14.6,8.3,14.9,8.6,15.1,8.9L15.1,8.9z M21.4,2.6c-2.6-2.6-6.9-2.6-9.6,0l-3,3c0,0,0,0,0,0
	c-2.6,2.6-2.6,6.9,0,9.5c0.3,0.3,0.6,0.5,0.9,0.8c0.3,0.2,0.7,0.2,0.9-0.1l0.9-0.9c0.4-0.4,0.5-0.9,0.5-1.3c0-0.2-0.1-0.4-0.3-0.6
	c-0.1-0.1-0.3-0.2-0.5-0.4c-1.2-1.2-1.3-3.3,0-4.5l3-3c1.3-1.3,3.3-1.2,4.6,0c1.2,1.3,1.2,3.3-0.1,4.5l-0.6,0.6
	c-0.2,0.2-0.3,0.5-0.2,0.7c0.3,0.8,0.4,1.6,0.4,2.3c0,0.6,0.8,0.9,1.2,0.5l1.7-1.7C24.1,9.5,24.1,5.2,21.4,2.6L21.4,2.6z"/>
</svg>
