<?xml version="1.0" encoding="utf-8"?>
<!-- Generator: Adobe Illustrator 23.0.1, SVG Export Plug-In . SVG Version: 6.00 Build 0)  -->
<svg version="1.1" id="Capa_1" xmlns="http://www.w3.org/2000/svg" xmlns:xlink="http://www.w3.org/1999/xlink" x="0px" y="0px"
	 viewBox="0 0 24 24" style="enable-background:new 0 0 24 24;" xml:space="preserve">
<style type="text/css">
	.st0{fill:#ACACAC;}
</style>
<path class="st0" d="M13.4,1.4L8.3,6.5H2.4C1.7,6.5,1,7.1,1,7.9v8.3c0,0.8,0.6,1.4,1.4,1.4h5.9l5.1,5.1c0.9,0.9,2.4,0.3,2.4-1V2.4
	C15.8,1.1,14.3,0.5,13.4,1.4z M20.5,7.6c-0.7-0.4-1.5-0.1-1.9,0.5c-0.4,0.7-0.1,1.5,0.5,1.9c0.7,0.4,1.2,1.2,1.2,2s-0.5,1.6-1.2,2
	c-0.7,0.4-0.9,1.2-0.5,1.9c0.4,0.7,1.2,0.9,1.9,0.5c1.6-0.9,2.6-2.6,2.6-4.4S22.1,8.5,20.5,7.6z"/>
</svg>
