<?xml version="1.0" encoding="utf-8"?>
<!-- Generator: Adobe Illustrator 23.0.1, SVG Export Plug-In . SVG Version: 6.00 Build 0)  -->
<svg version="1.1" id="Capa_1" xmlns="http://www.w3.org/2000/svg" xmlns:xlink="http://www.w3.org/1999/xlink" x="0px" y="0px"
	 viewBox="0 0 24 24" style="enable-background:new 0 0 24 24;" xml:space="preserve">
<style type="text/css">
	.st0{fill:#ACACAC;}
	.st1{fill:#FFFFFF;}
</style>
<path class="st0" d="M12,13h12v7H12V13z"/>
<path class="st1" d="M12,14h11v5H12V14z"/>
<path class="st0" d="M12,15h10v3H12V15z"/>
<path class="st0" d="M13,0h7v24h-7V0z"/>
<path class="st1" d="M14,1h5v22h-5V1z"/>
<path class="st0" d="M15,2h3v20h-3V2z"/>
<path class="st0" d="M12,4h12v7H12V4z"/>
<path class="st1" d="M12,5h11v5H12V5z"/>
<path class="st0" d="M12,6h10v3H12V6z"/>
<path class="st0" d="M0,4h12v7H0V4z"/>
<path class="st1" d="M1,5h11v5H1V5z"/>
<path class="st0" d="M2,6h10v3H2V6z"/>
<path class="st0" d="M4,0h7v24H4V0z"/>
<path class="st1" d="M5,1h5v22H5V1z"/>
<path class="st0" d="M6,2h3v20H6V2z"/>
<path class="st0" d="M0,13h12v7H0V13z"/>
<path class="st1" d="M1,14h11v5H1V14z"/>
<path class="st0" d="M2,15h10v3H2V15z"/>
</svg>
