<?xml version="1.0" encoding="utf-8"?>
<!-- Generator: Adobe Illustrator 23.0.1, SVG Export Plug-In . SVG Version: 6.00 Build 0)  -->
<svg version="1.1" id="Capa_1" xmlns="http://www.w3.org/2000/svg" xmlns:xlink="http://www.w3.org/1999/xlink" x="0px" y="0px"
	 viewBox="0 0 24 24" style="enable-background:new 0 0 24 24;" xml:space="preserve">
<style type="text/css">
	.st0{fill:#ACACAC;}
</style>
<path class="st0" d="M0.6,11.8V2.8c0-1.2,1-2.1,2.1-2.1h9.1c0.6,0,1.1,0.2,1.5,0.6l9.4,9.4c0.8,0.8,0.8,2.2,0,3l-9.1,9.1
	c-0.8,0.8-2.2,0.8-3,0l-9.4-9.4C0.9,12.9,0.6,12.4,0.6,11.8z M5.6,3.5c-1.2,0-2.1,1-2.1,2.1s1,2.1,2.1,2.1s2.1-1,2.1-2.1
	S6.8,3.5,5.6,3.5z"/>
</svg>
