<?xml version="1.0" encoding="utf-8"?>
<!-- Generator: Adobe Illustrator 23.0.1, SVG Export Plug-In . SVG Version: 6.00 Build 0)  -->
<svg version="1.1" id="Capa_1" xmlns="http://www.w3.org/2000/svg" xmlns:xlink="http://www.w3.org/1999/xlink" x="0px" y="0px"
	 viewBox="0 0 24 24" style="enable-background:new 0 0 24 24;" xml:space="preserve">
<style type="text/css">
	.st0{fill:#ACACAC;}
</style>
<path class="st0" d="M12,1C8.6,1,6.4,2.4,4.7,4.9C4.3,5.4,4.4,6,4.9,6.3l1.8,1.4C7.2,8.1,7.8,8,8.1,7.6c1.1-1.3,1.9-2.1,3.5-2.1
	c1.3,0,2.9,0.8,2.9,2.1c0,1-0.8,1.5-2.1,2.2C11,10.6,9,11.7,9,14.3v0.4c0,0.6,0.5,1,1,1h3.1c0.6,0,1-0.5,1-1v-0.2
	c0-1.8,5.4-1.9,5.4-6.9C19.5,3.9,15.7,1,12,1z M11.6,17c-1.6,0-3,1.3-3,3c0,1.6,1.3,3,3,3s3-1.3,3-3C14.6,18.4,13.2,17,11.6,17z"/>
</svg>
