<?xml version="1.0" encoding="utf-8"?>
<!-- Generator: Adobe Illustrator 23.0.1, SVG Export Plug-In . SVG Version: 6.00 Build 0)  -->
<svg version="1.1" id="Capa_1" xmlns="http://www.w3.org/2000/svg" xmlns:xlink="http://www.w3.org/1999/xlink" x="0px" y="0px"
	 viewBox="0 0 24 24" style="enable-background:new 0 0 24 24;" xml:space="preserve">
<style type="text/css">
	.st0{fill:#ACACAC;}
</style>
<path class="st0" d="M20.8,14.6c-1.6,0-2.3,1.2-3.2,1.2c-2.3,0-0.2-6.8-0.2-6.8s-7.5,3.1-7.5-0.1c0-1.4,1.4-1.8,1.4-3.3
	c0-1.4-1.1-2.1-2.4-2.1c-1.3,0-2.6,0.7-2.6,2.2c0,1.6,1.2,2.3,1.2,3.1c0,2.7-6.8,1.1-6.8,1.1v12.8c0,0,6.9,1.6,6.9-1.1
	c0-0.9-1.5-1.5-1.5-3.1c0-1.4,1.1-2.2,2.4-2.2c1.3,0,2.4,0.7,2.4,2.1c0,1.5-1.4,1.9-1.4,3.3c0,2.3,5,1,7,1c0,0-1.3-4.6,1-4.6
	c1.4,0,1.8,1.4,3.3,1.4c1.4,0,2.1-1.1,2.1-2.4C23,15.8,22.3,14.6,20.8,14.6z"/>
</svg>
