<?xml version="1.0" encoding="utf-8"?>
<!-- Generator: Adobe Illustrator 23.0.1, SVG Export Plug-In . SVG Version: 6.00 Build 0)  -->
<svg version="1.1" id="Capa_1" xmlns="http://www.w3.org/2000/svg" xmlns:xlink="http://www.w3.org/1999/xlink" x="0px" y="0px"
	 viewBox="0 0 24 24" style="enable-background:new 0 0 24 24;" xml:space="preserve">
<style type="text/css">
	.st0{fill:#ACACAC;}
</style>
<path class="st0" d="M21.9,16.5V1.6c0-0.6-0.5-1.1-1.1-1.1H6.3C4,0.6,2.1,2.5,2.1,4.8V19c0,2.3,1.9,4.2,4.2,4.2h14.5
	c0.6,0,1.1-0.5,1.1-1.1v-0.7c0-0.3-0.2-0.6-0.4-0.8c-0.2-0.7-0.2-2.6,0-3.3C21.8,17.1,21.9,16.8,21.9,16.5L21.9,16.5z M7.8,6.5
	c0-0.1,0.1-0.3,0.3-0.3h9.4c0.1,0,0.3,0.1,0.3,0.3v0.9c0,0.1-0.1,0.3-0.3,0.3H8c-0.1,0-0.3-0.1-0.3-0.3V6.5z M7.8,9.3
	c0-0.1,0.1-0.3,0.3-0.3h9.4c0.1,0,0.3,0.1,0.3,0.3v0.9c0,0.1-0.1,0.3-0.3,0.3H8c-0.1,0-0.3-0.1-0.3-0.3V9.3z M19,20.4H6.3
	c-0.8,0-1.4-0.6-1.4-1.4c0-0.8,0.6-1.4,1.4-1.4H19C18.9,18.3,18.9,19.6,19,20.4z"/>
</svg>
