<?xml version="1.0" encoding="utf-8"?>
<!-- Generator: Adobe Illustrator 23.0.1, SVG Export Plug-In . SVG Version: 6.00 Build 0)  -->
<svg version="1.1" id="Capa_1" xmlns="http://www.w3.org/2000/svg" xmlns:xlink="http://www.w3.org/1999/xlink" x="0px" y="0px"
	 viewBox="0 0 24 24" style="enable-background:new 0 0 24 24;" xml:space="preserve">
<style type="text/css">
	.st0{fill:#ACACAC;}
</style>
<path class="st0" d="M8.1,16.5c-0.1,0-0.2,0-0.2,0c-0.5,0.1-0.9,0.2-1.4,0.2s-1-0.1-1.4-0.2c-0.1,0-0.2,0-0.2,0
	c-2.2,0-3.9,1.8-3.9,3.9c0,0.9,0.8,1.7,1.7,1.7h7.8c0.9,0,1.7-0.7,1.7-1.7C12,18.2,10.3,16.5,8.1,16.5z M6.4,15.4
	c1.9,0,3.4-1.5,3.4-3.4S8.3,8.6,6.4,8.6S3,10.2,3,12S4.5,15.4,6.4,15.4z M21.5,4.2H8.1c-0.9,0-1.7,0.8-1.7,1.7v1.6
	c0.8,0,1.6,0.2,2.2,0.6V6.4H21v10.1h-2.2v-2.2h-4.5v2.2h-2.7c0.7,0.6,1.2,1.4,1.4,2.2h8.6c0.9,0,1.7-0.8,1.7-1.7V5.9
	C23.2,4.9,22.4,4.2,21.5,4.2z"/>
</svg>
