<?xml version="1.0" encoding="utf-8"?>
<!-- Generator: Adobe Illustrator 23.0.1, SVG Export Plug-In . SVG Version: 6.00 Build 0)  -->
<svg version="1.1" id="Capa_1" xmlns="http://www.w3.org/2000/svg" xmlns:xlink="http://www.w3.org/1999/xlink" x="0px" y="0px"
	 viewBox="0 0 24 24" style="enable-background:new 0 0 24 24;" xml:space="preserve">
<style type="text/css">
	.st0{fill:#ACACAC;}
</style>
<path class="st0" d="M18.5,3.4h-3.6c0-1.6-1.3-2.9-2.9-2.9S9.2,1.8,9.2,3.4H5.6c-1.2,0-2.2,1-2.2,2.2v15.8c0,1.2,1,2.2,2.2,2.2h13
	c1.2,0,2.2-1,2.2-2.2V5.5C20.7,4.3,19.7,3.4,18.5,3.4z M7.7,19.6c-0.6,0-1.1-0.5-1.1-1.1c0-0.6,0.5-1.1,1.1-1.1s1.1,0.5,1.1,1.1
	C8.8,19.1,8.3,19.6,7.7,19.6z M7.7,15.2c-0.6,0-1.1-0.5-1.1-1.1c0-0.6,0.5-1.1,1.1-1.1s1.1,0.5,1.1,1.1C8.8,14.8,8.3,15.2,7.7,15.2z
	 M7.7,10.9c-0.6,0-1.1-0.5-1.1-1.1c0-0.6,0.5-1.1,1.1-1.1s1.1,0.5,1.1,1.1C8.8,10.4,8.3,10.9,7.7,10.9z M12.1,2.3
	c0.6,0,1.1,0.5,1.1,1.1s-0.5,1.1-1.1,1.1C11.5,4.4,11,4,11,3.4S11.5,2.3,12.1,2.3z M17.8,18.8c0,0.2-0.2,0.4-0.4,0.4H11
	c-0.2,0-0.4-0.2-0.4-0.4v-0.7c0-0.2,0.2-0.4,0.4-0.4h6.5c0.2,0,0.4,0.2,0.4,0.4V18.8z M17.8,14.5c0,0.2-0.2,0.4-0.4,0.4H11
	c-0.2,0-0.4-0.2-0.4-0.4v-0.7c0-0.2,0.2-0.4,0.4-0.4h6.5c0.2,0,0.4,0.2,0.4,0.4V14.5z M17.8,10.2c0,0.2-0.2,0.4-0.4,0.4H11
	c-0.2,0-0.4-0.2-0.4-0.4V9.5c0-0.2,0.2-0.4,0.4-0.4h6.5c0.2,0,0.4,0.2,0.4,0.4V10.2z"/>
</svg>
