<svg id="Capa_1" data-name="Capa 1" xmlns="http://www.w3.org/2000/svg" viewBox="0 0 76.69 46.01"><title>mosaicos_icon</title><path d="M64.31,27.48a15.21,15.21,0,0,0-5.08.83l-3.95-6.58h9.88A2.86,2.86,0,0,0,68,18.86V15a2.86,2.86,0,0,0-2.87-2.87H59.73a2.85,2.85,0,0,0-2.13.94l-4.5,5-2.73-4.55a2.87,2.87,0,0,0-2.47-1.39H38.32a1.92,1.92,0,0,0-1.92,1.91V16a1.93,1.93,0,0,0,1.92,1.92h8l2.3,3.83H30.16c-2.12-2.77-5.38-4.79-12-4.79H11.54a2.91,2.91,0,0,0-2.93,2.93,2.87,2.87,0,0,0,2.87,2.82h6.71a6.35,6.35,0,0,1,5.73,3l-1.35,2.46A15.33,15.33,0,1,0,33.05,46.65H43.14a2.87,2.87,0,0,0,2.87-3,18.16,18.16,0,0,1,6.73-15l1.5,2.49a15.34,15.34,0,1,0,10.07-3.68ZM18.19,52.4a9.59,9.59,0,0,1,0-19.17,9.29,9.29,0,0,1,1.5.12l-5,9a2.87,2.87,0,0,0,2.51,4.26H27A9.6,9.6,0,0,1,18.19,52.4Zm55.58-9.06a9.59,9.59,0,0,1-19.16-.52,9.49,9.49,0,0,1,2.65-6.6l5.92,9.87a1.93,1.93,0,0,0,2.64.66l1.64-1a1.92,1.92,0,0,0,.66-2.63l-5.83-9.69a8.73,8.73,0,0,1,1.91-.2,9.58,9.58,0,0,1,9.57,10.1Z" transform="translate(-2.85 -12.15)"/></svg>