<?xml version="1.0" encoding="utf-8"?>
<!-- Generator: Adobe Illustrator 23.0.1, SVG Export Plug-In . SVG Version: 6.00 Build 0)  -->
<svg version="1.1" id="Capa_1" xmlns="http://www.w3.org/2000/svg" xmlns:xlink="http://www.w3.org/1999/xlink" x="0px" y="0px"
	 viewBox="0 0 24 24" style="enable-background:new 0 0 24 24;" xml:space="preserve">
<style type="text/css">
	.st0{fill:#ACACAC;}
</style>
<path class="st0" d="M23.1,16.6l-2.8,4.8c-0.4,0.8-1.3,1.2-2.1,1.2H2.6c-0.7,0-1.2-0.8-0.8-1.4l2.8-4.8c0.4-0.8,1.3-1.2,2.1-1.2
	h15.5C23,15.2,23.4,16,23.1,16.6z M6.7,14h12.7v-1.9c0-1-0.8-1.9-1.9-1.9h-6.2L8.9,7.7H2.7c-1,0-1.9,0.8-1.9,1.9v10.8l2.7-4.6
	C4.2,14.7,5.4,14,6.7,14z"/>
</svg>
