<?xml version="1.0" encoding="utf-8"?>
<!-- Generator: Adobe Illustrator 23.0.1, SVG Export Plug-In . SVG Version: 6.00 Build 0)  -->
<svg version="1.1" id="Capa_1" xmlns="http://www.w3.org/2000/svg" xmlns:xlink="http://www.w3.org/1999/xlink" x="0px" y="0px"
	 viewBox="0 0 24 24" style="enable-background:new 0 0 24 24;" xml:space="preserve">
<style type="text/css">
	.st0{fill:#ACACAC;}
</style>
<path class="st0" d="M1.1,5.5h18.7c0.4,0,0.7-0.4,0.7-0.8V1.4c0-0.5-0.3-0.8-0.7-0.8H1.1c-0.4,0-0.7,0.4-0.7,0.8v3.3
	C0.4,5.1,0.7,5.5,1.1,5.5z M22.7,9.6H4c-0.4,0-0.7,0.4-0.7,0.8v3.3c0,0.5,0.3,0.8,0.7,0.8h18.7c0.4,0,0.7-0.4,0.7-0.8v-3.3
	C23.4,10,23.1,9.6,22.7,9.6z M19.8,18.7H1.1c-0.4,0-0.7,0.4-0.7,0.8v3.3c0,0.5,0.3,0.8,0.7,0.8h18.7c0.4,0,0.7-0.4,0.7-0.8v-3.3
	C20.5,19,20.2,18.7,19.8,18.7z"/>
</svg>
